<?xml version="1.0" encoding="UTF-8"?>
<svg id="Camada_1" data-name="Camada 1" xmlns="http://www.w3.org/2000/svg" viewBox="0 0 303.33 290.68" fill="#730E16">
  <path d="M147.11,1.89L1.9,147.09c-4.06,4.06-1.18,11,4.56,11h0c3.56,0,6.44,2.88,6.44,6.44v119.7c0,3.56,2.88,6.44,6.44,6.44h83.03c3.56,0,6.44-2.88,6.44-6.44v-80.37c0-3.56,2.88-6.44,6.44-6.44h72.81c3.56,0,6.44,2.88,6.44,6.44v80.37c0,3.56,2.88,6.44,6.44,6.44h83.03c3.56,0,6.44-2.88,6.44-6.44v-119.7c0-3.56,2.88-6.44,6.44-6.44h0c5.74,0,8.61-6.94,4.56-11L156.22,1.89c-2.52-2.52-6.6-2.52-9.11,0Z"/>
</svg>